<?xml version="1.0" encoding="UTF-8"?>
<svg id="Capa_1" data-name="Capa 1" xmlns="http://www.w3.org/2000/svg" viewBox="0 0 265.63 124.85">
  <path d="M265.63,44.07v-18h-53.21V.05h-25.05v26.02h-28.69V.05h-25.05v33.29c-8.09-6.32-18.7-9.82-31.3-9.82-25.09,0-42.35,13.61-47.72,35.4h-.03v.1c-1.14,4.69-1.76,9.75-1.76,15.15,0,4.99.53,9.7,1.51,14.13-1.06,9.24-5.77,14.45-14.63,14.45-10.37,0-14.68-7.04-14.68-19.18V.04H0v86.07c0,20.74,11.15,38.74,39.33,38.74,13.45,0,23.1-4.45,29.44-11.4,8.32,7.26,19.66,11.4,33.57,11.4,15.96,0,28.8-5.73,37.31-15.7,5.97,9.42,16.68,15.7,33.31,15.7,11.55,0,20.29-3.28,26.56-8.61,6.28,5.35,15.18,8.61,27.17,8.61,27.2,0,38.93-18.19,38.93-38.54v-27.39h-23.68v25.05c0,11.93-4.69,18.78-14.87,18.78s-14.68-7.04-14.68-19.18v-39.52h53.21v.03h.03ZM102.35,103.54c-15.46,0-23.28-9.78-23.28-29.34s7.83-29.15,23.28-29.15,23.28,9.59,23.28,29.15-7.82,29.34-23.28,29.34h0ZM173.38,102.76c-10.37,0-14.68-7.04-14.68-19.18v-39.52h28.69v42.06c0,1.59.08,3.15.21,4.7-1.59,7.65-6.19,11.92-14.22,11.92h0v.02h0Z"/>
  <rect x="241.7" width="23.88" height="14.54"/>
</svg>